PathFileType	4	(X/Y/Z)	Patient4_TMGait_0pt3_01_left_14.trc.trc
DataRate	CameraRate	NumFrames	NumMarkers	Units	OrigDataRate	OrigDataStartFrame	OrigNumFrames
53.030303030303	53.030303030303	5	33	mm	53.030303030303	18	       141
Frame#	Time	Sacral			L.Shoulder			Chest			R.Shoulder			Neck			R.ASIS			L.ASIS			R.Thigh.Superior			R.Thigh.Lateral			R.Thigh.Inferior			R.Patella			L.Thigh.Superior			L.Thigh.Lateral			L.Thigh.Inferior			L.Patella			L.Shank.Superior			L.Shank.Lateral			L.Shank.Inferior			R.Shank.Superior			R.Shank.Lateral			R.Shank.Inferior			R.Heel			R.Midfoot.Superior			R.Midfoot.Lateral			R.Toe			L.Heel			L.Midfoot.Lateral			L.Midfoot.Superior			L.Toe			L.Elbow			L.Wrist			R.Elbow			R.Wrist			
		X1	Y1	Z1	X2	Y2	Z2	X3	Y3	Z3	X4	Y4	Z4	X5	Y5	Z5	X6	Y6	Z6	X7	Y7	Z7	X8	Y8	Z8	X9	Y9	Z9	X10	Y10	Z10	X11	Y11	Z11	X12	Y12	Z12	X13	Y13	Z13	X14	Y14	Z14	X15	Y15	Z15	X16	Y16	Z16	X17	Y17	Z17	X18	Y18	Z18	X19	Y19	Z19	X20	Y20	Z20	X21	Y21	Z21	X22	Y22	Z22	X23	Y23	Z23	X24	Y24	Z24	X25	Y25	Z25	X26	Y26	Z26	X27	Y27	Z27	X28	Y28	Z28	X29	Y29	Z29	X30	Y30	Z30	X31	Y31	Z31	X32	Y32	Z32	X33	Y33	Z33	

18	26.230571428571	752.802823265267	998.344855066109	591.193606728400	905.607724279121	1420.158903271092	379.238517888821	1024.756319389664	1360.616193627878	532.285839864849	958.392399754030	1443.598233508540	708.933294933139	910.177645504703	1489.745715008053	534.101997031276	990.475322083479	937.087671414921	688.330536889631	954.091229089507	958.698251944617	415.446315500651	1011.257388264481	727.753527472862	651.337234019459	923.104874968383	621.804502007928	712.132820102846	988.882473218316	565.762368997916	627.363905313071	978.709301464986	474.518008573067	632.090658042307	1038.292108179217	776.043959074889	450.323642862914	998.841820339508	649.970209414590	367.746867862940	1096.759330672423	589.707454272842	436.878280651629	1120.997598323187	513.908908721849	426.907622863697	1083.819302086504	440.750313454809	411.657484235169	984.063422766307	338.739086251612	353.717552777420	1037.298377377198	216.431704934775	403.614040200352	934.923166227376	389.507329508432	638.865471532888	847.087665790491	297.185450468432	697.476917240113	873.547325089496	198.235234441574	633.408726788053	717.746153998234	45.097785866452	596.825986203327	886.743536410032	95.636146555744	643.710144994701	794.639208891270	37.852144606469	677.808435993565	1003.024828909258	41.124586643737	685.154946462261	905.925019380767	61.118120389602	432.976469885690	979.737593950534	56.144215752387	352.974947267550	1066.126490482357	114.931436643903	378.044681010888	1190.127476051920	59.678417737797	347.806095312136	781.918282527567	1083.022767357424	301.518658731552	761.979394230411	824.741533517712	325.226405493138	1096.703331648987	1153.090356639386	857.209736487370	1319.964683355286	1245.402923767319	792.255957801762	
19	26.249428571429	752.813754900504	999.392632888551	590.241857471498	903.952441591538	1420.554608895392	376.522362088983	1025.059171223302	1360.693872735796	527.881835745984	961.395772417685	1444.201200065646	705.169492883695	910.615447799043	1490.060699294540	531.061886171248	990.770205129734	936.878470139524	684.982812891142	952.336207373205	959.012373484148	412.362485813242	1008.082239097249	726.882158614839	648.632004573292	918.734116650059	622.287461155357	710.651407756240	982.736514390195	565.167849148072	625.578946694483	971.269319835956	474.687295053399	630.689410487568	1034.406753117468	774.423129531089	446.888003634063	992.713244419566	648.849728343121	364.590266462549	1089.895882208024	587.818589481024	433.527887068276	1114.195250294224	513.939704214349	424.406246283609	1080.706259748590	440.623337440788	409.289780647881	987.487446954890	332.652271600759	349.635789728661	1046.477959163225	213.240365316195	401.376627616449	928.026720133619	389.740309506491	637.969730115595	840.574887032035	297.354324980950	697.073207787562	867.250380344016	198.368506310677	633.174610602168	711.886180147410	44.780667697120	597.000063268189	880.718147564891	95.355503108923	643.361222977533	788.792906864520	37.692695526301	677.928983756870	997.205630638287	41.322117199268	685.079255265226	922.298696332442	51.688922373581	428.295900943315	998.682280452122	48.954197660929	350.348236984337	1081.841709232474	112.029068252605	377.301982289862	1209.504124636412	61.813697740292	351.245697203033	771.833334013858	1087.044235708919	300.757708542457	747.474363968525	829.279464347019	325.496289153467	1109.003832480777	1159.256298263542	851.542755442971	1325.207106410494	1261.625471340489	779.531317946393	
20	26.268285714286	753.002211311245	1000.091542727447	588.907842800483	902.579629123664	1420.584875412593	373.380071065470	1025.439143347895	1360.484784893707	523.202785330466	964.218532477323	1444.514946096237	701.001643736990	911.129460051602	1490.077793038585	527.550762397718	991.233782814748	936.518035359544	681.477282011873	950.837491993268	958.869717996070	409.100714370753	1005.250536430604	725.895013696145	645.921082963724	914.731323426572	622.584684743084	709.074449340549	977.074520430062	564.438969173486	623.781902682973	964.345403547121	474.682638577498	629.248480491193	1031.012109516414	772.477996884719	443.003847286009	986.623952079004	647.293642955606	361.378853677329	1083.507962761470	585.609289180626	429.671016045480	1107.428859555544	513.341967164896	421.603654946373	1077.119088497906	439.995240508345	406.742516757664	989.410704489557	327.327615981097	346.043101708401	1053.048260788529	210.627939048582	399.410096561488	921.534097301171	389.821062410037	637.000518519138	834.369086169487	297.477903922631	696.630137082762	861.116272421018	198.427514674716	632.915344435510	706.027106255532	44.468060134728	597.163137351114	874.720301482441	95.095167661986	643.043693686923	782.951431176382	37.524443072696	678.044082038534	991.392164690977	41.507281533089	684.998667434430	934.879713572972	44.837635911920	424.579905436253	1013.240725173365	43.615952039462	348.359385990027	1093.729644363013	109.674018046055	376.839196713161	1223.886754047148	63.143517804095	354.427118389868	763.243223712920	1090.361855135252	299.680174400988	735.353716416670	832.989142704757	325.288558705763	1120.404818843366	1165.007307486838	845.375770907358	1329.417122846332	1276.434181728637	766.933602302889	
21	26.287142857143	753.358963940555	1000.441175765944	587.181540858888	901.486305022611	1420.249020210207	369.811855210976	1025.891908044251	1360.000440115606	518.268551174401	966.836572853909	1444.545785659799	696.459407808071	911.711916298173	1489.805236331081	523.581037414427	991.877006625185	936.012307306534	677.820323538430	949.605506289500	958.295591947748	405.665174950234	1002.839101978472	724.800394140362	643.187395892445	911.197807917532	622.679744803829	707.371182244849	972.038959746534	563.570775143225	621.946747818622	958.097586589055	474.471871856725	627.737897650818	1028.255299711608	770.370645380582	438.723327888278	980.819695407592	645.412510633758	358.205495333672	1077.879071848690	583.243428720893	425.386891044438	1101.010022949894	512.219850839808	418.546735655836	1073.316080542269	438.909627751906	404.056045346356	989.867066409293	322.779568733400	343.018601322815	1057.026507738627	208.456320634893	397.747309571374	915.565487398303	389.731388602552	635.935565783960	828.553370765739	297.568026799377	696.126030300574	855.198078318332	198.409474670614	632.623142532196	700.182621041457	44.190742036029	597.309102583041	868.776296088928	94.873070588155	642.773820747502	777.128399030608	37.361540305514	678.148802768697	985.593191611836	41.663997977273	684.919058719834	943.451459056165	40.230366359078	421.941742656441	1023.177503844080	39.887471983708	347.001724317917	1101.689010215069	107.718934647415	376.609787844248	1233.333590619485	63.551821376845	357.045452078676	756.230501364077	1092.847317813270	298.229412111700	725.635480281309	835.721108766442	324.547703986043	1130.820705580680	1170.187766918440	838.738684559887	1332.703975521032	1289.703164725011	754.573076590085	
22	26.306000000000	753.863825557605	1000.478502106669	585.061192877657	900.664949181597	1419.581418186645	365.836254122824	1026.417849971378	1359.275215305979	513.106023633336	969.248462979223	1444.324505181304	691.584166829818	912.362127363677	1489.278868444173	519.187382085845	992.693434239168	935.382051562492	674.013431314558	948.639963325000	957.358371708242	402.056528561884	1000.887274020303	723.619259456764	640.405484350666	908.191165497574	622.579200018195	705.508955680741	967.718772573018	562.574485019407	620.043277106789	952.627547056779	474.044828432822	626.127913566681	1026.228275598636	768.273190012708	434.144734126221	975.553636828105	643.350165982478	355.141946125859	1073.222705260226	580.887044998749	420.811098361178	1095.224746523209	510.717610419340	415.323459506706	1069.569192512622	437.451656961122	401.302991522215	989.054586726394	318.993020767863	340.550609342100	1058.620619175337	206.601330893545	396.395731868835	910.195743135870	389.471879063890	634.754447588440	823.176968041046	297.646816778267	695.539811716872	849.531865025619	198.325159794289	632.290300872474	694.365619157919	43.984695341881	597.433917081769	862.907655673103	94.701013468411	642.556030844849	771.337015243435	37.223084544853	678.237948208729	979.816720019842	41.776733979149	684.845932150737	948.110539905405	37.455666924888	420.348954555000	1028.628525923934	37.477893599099	346.198644458599	1105.895424344101	106.038790839398	376.557723472210	1238.217602811082	63.048938854009	358.926815994401	750.826204736648	1094.438131861322	296.348841093625	718.333569478979	837.402771634867	323.214927876374	1140.190840260744	1174.671040367300	831.678198325749	1335.194273351078	1301.340191434825	742.543923461783	
